<?xml version="1.0" encoding="utf-8"?>
<svg xmlns="http://www.w3.org/2000/svg" viewBox="57.4329 173.1992 92.592 92.59" width="92.592px" height="92.59px"><g transform="matrix(1, 0, 0, 1, -146.27133178710938, -30.50578498840332)" id="object-0"><path d="M 216.754 238.963 C 215.473 235.635 215.383 231.628 216.535 228.068 C 217.688 224.51 220.113 221.318 223.102 219.385 C 224.016 215.936 226.297 212.639 229.317 210.44 C 232.336 208.24 236.176 207.084 239.723 207.279 C 242.488 205.029 246.262 203.705 249.996 203.705 C 253.729 203.705 257.507 205.029 260.269 207.279 C 263.819 207.084 267.659 208.244 270.675 210.44 C 273.694 212.639 275.975 215.936 276.889 219.385 C 279.878 221.322 282.303 224.514 283.456 228.068 C 284.608 231.627 284.518 235.635 283.237 238.963 C 284.518 242.292 284.608 246.299 283.456 249.858 C 282.303 253.417 279.878 256.605 276.889 258.542 C 276.335 260.644 275.284 262.687 273.819 264.495 C 273.452 264.948 272.921 265.183 272.378 265.183 C 271.967 265.183 271.557 265.046 271.214 264.769 C 270.417 264.124 270.296 262.96 270.94 262.163 C 272.198 260.608 273.089 258.773 273.444 256.995 C 273.549 256.468 273.882 256.011 274.35 255.749 C 276.878 254.319 278.964 251.69 279.928 248.714 C 280.893 245.737 280.749 242.378 279.542 239.729 C 279.319 239.241 279.319 238.679 279.542 238.19 C 280.753 235.546 280.897 232.186 279.928 229.206 C 278.964 226.229 276.878 223.597 274.35 222.171 C 273.882 221.905 273.553 221.452 273.444 220.925 C 272.87 218.069 271.018 215.272 268.491 213.429 C 265.964 211.589 262.729 210.69 259.854 211.022 C 259.323 211.093 258.784 210.913 258.389 210.546 C 256.253 208.577 253.112 207.401 249.991 207.401 C 246.87 207.401 243.729 208.577 241.593 210.546 C 241.198 210.909 240.663 211.093 240.128 211.022 C 237.249 210.69 234.018 211.589 231.491 213.429 C 228.964 215.268 227.112 218.069 226.538 220.925 C 226.433 221.452 226.101 221.909 225.632 222.171 C 223.104 223.6 221.018 226.229 220.054 229.206 C 219.089 232.183 219.233 235.542 220.44 238.19 C 220.663 238.679 220.663 239.241 220.44 239.729 C 219.229 242.374 219.085 245.733 220.054 248.714 C 221.018 251.69 223.104 254.323 225.632 255.749 C 226.101 256.015 226.429 256.468 226.538 256.995 C 226.893 258.772 227.784 260.605 229.042 262.163 C 229.686 262.956 229.561 264.124 228.768 264.769 C 227.975 265.413 226.808 265.288 226.163 264.495 C 224.698 262.687 223.651 260.644 223.093 258.542 C 220.104 256.605 217.679 253.413 216.526 249.858 C 215.374 246.3 215.464 242.292 216.745 238.963 L 216.754 238.963 Z M 276.293 238.885 C 276.293 253.385 264.496 265.182 249.996 265.182 C 235.496 265.182 223.699 253.385 223.699 238.885 C 223.699 224.385 235.496 212.588 249.996 212.588 C 264.496 212.588 276.293 224.385 276.293 238.885 Z M 272.59 238.885 C 272.59 226.428 262.453 216.291 249.996 216.291 C 237.539 216.291 227.402 226.428 227.402 238.885 C 227.402 251.342 237.539 261.479 249.996 261.479 C 262.453 261.479 272.59 251.342 272.59 238.885 Z M 203.899 293.615 L 207.93 285.553 L 203.899 277.49 C 203.614 276.916 203.645 276.236 203.981 275.689 C 204.317 275.142 204.914 274.81 205.555 274.81 L 214.446 274.81 C 215.469 274.81 216.297 275.638 216.297 276.662 C 216.297 277.685 215.469 278.514 214.446 278.514 L 208.551 278.514 L 211.657 284.724 C 211.918 285.248 211.918 285.861 211.657 286.381 L 208.551 292.592 L 227.789 292.592 C 229.211 292.592 230.367 291.435 230.367 290.013 L 230.367 287.408 L 225.582 287.408 C 223.894 287.408 222.305 286.752 221.109 285.552 C 219.914 284.361 219.258 282.771 219.258 281.084 L 219.258 274.474 C 219.258 272.783 219.914 271.193 221.113 270.002 C 222.305 268.806 223.894 268.15 225.582 268.15 L 274.418 268.15 C 276.105 268.15 277.695 268.806 278.891 270.005 C 280.086 271.197 280.742 272.787 280.742 274.474 L 280.742 281.084 C 280.742 282.775 280.086 284.365 278.887 285.556 C 277.695 286.752 276.106 287.408 274.418 287.408 L 269.633 287.408 L 269.633 290.013 C 269.633 291.435 270.789 292.592 272.211 292.592 L 291.449 292.592 L 288.343 286.381 C 288.082 285.857 288.082 285.244 288.343 284.724 L 291.449 278.514 L 285.554 278.514 C 284.531 278.514 283.703 277.685 283.703 276.662 C 283.703 275.639 284.531 274.81 285.554 274.81 L 294.445 274.81 C 295.089 274.81 295.683 275.142 296.019 275.689 C 296.359 276.236 296.386 276.916 296.101 277.49 L 292.07 285.553 L 296.101 293.615 C 296.386 294.189 296.355 294.869 296.019 295.416 C 295.683 295.959 295.086 296.295 294.445 296.295 L 272.211 296.295 C 268.746 296.295 265.926 293.474 265.926 290.01 L 265.926 287.404 L 234.074 287.404 L 234.074 290.01 C 234.074 293.474 231.253 296.295 227.789 296.295 L 205.555 296.295 C 204.91 296.295 204.316 295.963 203.98 295.416 C 203.644 294.869 203.613 294.189 203.898 293.615 L 203.899 293.615 Z M 225.583 283.701 L 274.419 283.701 C 275.106 283.701 275.782 283.42 276.27 282.935 C 276.766 282.439 277.04 281.783 277.04 281.08 L 277.04 274.47 C 277.04 273.771 276.766 273.115 276.274 272.619 C 275.786 272.131 275.11 271.849 274.423 271.849 L 225.583 271.849 C 224.895 271.849 224.219 272.131 223.731 272.615 C 223.235 273.111 222.961 273.767 222.961 274.47 L 222.961 281.08 C 222.961 281.779 223.235 282.435 223.727 282.931 C 224.215 283.42 224.891 283.701 225.579 283.701 L 225.583 283.701 Z"/><path d="M 257.49 252.358 C 257.877 252.358 258.26 252.236 258.58 252.002 C 259.06 251.654 259.342 251.096 259.342 250.502 L 259.346 243.229 L 263.623 237.342 C 263.971 236.862 264.068 236.244 263.885 235.682 C 263.701 235.119 263.26 234.678 262.697 234.494 L 255.779 232.244 L 251.498 226.361 C 250.803 225.401 249.197 225.401 248.502 226.361 L 244.221 232.244 L 237.303 234.494 C 236.74 234.678 236.299 235.119 236.115 235.682 C 235.932 236.248 236.029 236.861 236.377 237.342 L 240.654 243.229 L 240.658 250.502 C 240.658 251.096 240.943 251.65 241.42 252.002 C 241.9 252.35 242.521 252.447 243.08 252.264 L 249.998 250.018 L 256.916 252.264 C 257.103 252.326 257.295 252.354 257.486 252.354 L 257.49 252.358 Z M 255.642 242.631 L 255.642 247.959 L 250.572 246.315 C 250.385 246.252 250.193 246.225 250.002 246.225 C 249.807 246.225 249.615 246.256 249.432 246.315 L 244.361 247.959 L 244.361 242.631 C 244.361 242.24 244.236 241.858 244.006 241.545 L 240.873 237.233 L 245.943 235.584 C 246.314 235.463 246.639 235.229 246.869 234.912 L 250.002 230.604 L 253.135 234.912 C 253.365 235.229 253.689 235.463 254.06 235.584 L 259.131 237.233 L 255.998 241.545 C 255.771 241.861 255.646 242.24 255.646 242.631 L 255.642 242.631 Z"/></g></svg>