<?xml version="1.0" encoding="utf-8"?>
<svg xmlns="http://www.w3.org/2000/svg" viewBox="328.6266 178.25 92.5927 92.594" width="92.5927px" height="92.594px"><path d="M 411.23 244.515 C 415.523 243.242 418.73 240.55 420.266 236.925 C 421.727 233.48 421.5 229.476 419.645 225.933 C 419.332 225.34 418.727 224.961 418.055 224.941 C 417.371 224.933 416.758 225.269 416.41 225.844 C 414.992 228.226 413.574 229.844 412.051 230.808 C 411.871 229.14 411.613 227.547 411.285 226.027 C 414.848 223.613 417.074 220.312 417.574 216.609 C 418.07 212.953 416.777 209.226 414.031 206.386 C 413.578 205.917 412.906 205.718 412.27 205.87 C 411.633 206.023 411.125 206.499 410.93 207.124 C 409.93 210.359 408.641 212.535 406.914 213.886 C 404.985 210.183 403.242 208.015 403.078 207.816 C 402.434 207.023 401.266 206.913 400.473 207.558 C 399.684 208.206 399.567 209.37 400.211 210.163 C 400.293 210.269 408.621 220.651 408.621 235.659 C 408.621 245.964 400.285 256.206 398.398 258.397 C 397.965 258.308 397.523 258.253 397.07 258.253 L 392.324 258.253 L 392.324 248.995 C 392.324 247.972 391.496 247.144 390.472 247.144 L 387.75 247.144 C 387.461 244.347 386.535 242.108 384.914 240.538 C 383.668 239.335 382.297 238.765 381.215 238.495 L 381.215 233.44 C 381.215 232.417 380.387 231.589 379.363 231.589 C 378.34 231.589 377.511 232.417 377.511 233.44 L 377.511 240.108 C 377.511 240.604 377.722 241.073 378.074 241.425 C 378.426 241.772 378.91 241.886 379.406 241.96 C 379.457 241.936 381.078 241.952 382.379 243.241 C 383.273 244.128 383.836 245.436 384.062 247.143 L 365.773 247.143 C 366 245.436 366.562 244.128 367.457 243.241 C 368.762 241.948 370.367 241.89 370.41 241.956 C 370.933 241.983 371.402 241.784 371.762 241.436 C 372.121 241.089 372.328 240.608 372.328 240.104 L 372.328 228.624 L 381.586 228.624 C 382.609 228.624 383.437 227.796 383.437 226.773 L 383.437 221.956 L 386.031 221.956 C 389.152 221.956 391.285 218.218 392.641 213.32 C 393.82 214.562 395.43 215.288 397.141 215.288 C 398.164 215.288 398.992 214.46 398.992 213.437 C 398.992 212.413 398.164 211.585 397.141 211.585 C 396.391 211.585 395.68 211.249 395.187 210.663 C 394.496 209.843 394.258 208.57 394.52 207.089 C 394.766 205.687 397.102 204.089 399.359 202.546 C 403.156 199.952 407.879 196.722 407.879 191.214 C 407.879 184.89 404.375 180.472 399.359 180.472 C 397.531 180.472 395.891 180.968 394.543 181.839 L 394.543 180.101 C 394.543 179.078 393.715 178.25 392.691 178.25 L 357.136 178.25 C 356.113 178.25 355.285 179.078 355.285 180.101 L 355.285 181.839 C 353.941 180.968 352.3 180.472 350.468 180.472 C 345.453 180.472 341.949 184.89 341.949 191.214 C 341.949 196.722 346.672 199.953 350.472 202.546 C 352.73 204.089 355.066 205.687 355.312 207.089 C 355.57 208.57 355.335 209.839 354.644 210.663 C 354.152 211.249 353.441 211.585 352.691 211.585 C 351.668 211.585 350.839 212.413 350.839 213.437 C 350.839 214.46 351.667 215.288 352.691 215.288 C 354.406 215.288 356.011 214.562 357.191 213.32 C 358.543 218.218 360.679 221.956 363.8 221.956 L 366.414 221.956 L 366.394 226.765 C 366.394 227.257 366.586 227.73 366.933 228.081 C 367.281 228.429 367.753 228.624 368.246 228.624 L 368.617 228.624 L 368.617 238.492 C 367.539 238.761 366.164 239.335 364.918 240.535 C 363.296 242.101 362.371 244.339 362.082 247.14 L 359.359 247.14 C 358.336 247.14 357.507 247.968 357.507 248.992 L 357.507 253.433 C 357.507 254.456 358.335 255.285 359.359 255.285 C 360.382 255.285 361.211 254.457 361.211 253.433 L 361.211 250.843 L 388.617 250.843 L 388.617 258.249 L 352.773 258.253 C 352.319 258.253 351.878 258.308 351.444 258.398 C 349.558 256.214 341.221 245.992 341.221 235.66 C 341.221 220.652 349.546 210.265 349.632 210.164 C 350.276 209.371 350.163 208.207 349.37 207.558 C 348.581 206.914 347.413 207.023 346.764 207.816 C 346.6 208.015 344.858 210.18 342.929 213.887 C 341.206 212.535 339.917 210.359 338.913 207.125 C 338.722 206.5 338.21 206.023 337.573 205.871 C 336.936 205.719 336.265 205.914 335.811 206.387 C 333.065 209.23 331.776 212.957 332.268 216.61 C 332.768 220.313 334.999 223.61 338.558 226.028 C 338.233 227.547 337.972 229.137 337.792 230.809 C 336.269 229.844 334.851 228.227 333.433 225.844 C 333.089 225.266 332.479 224.926 331.788 224.942 C 331.116 224.961 330.511 225.34 330.198 225.934 C 328.347 229.473 328.12 233.477 329.577 236.926 C 331.112 240.551 334.319 243.246 338.612 244.516 C 338.772 244.562 338.933 244.582 339.093 244.586 C 339.48 245.734 339.917 246.851 340.394 247.93 C 338.148 248.949 335.425 248.895 331.749 247.785 C 331.124 247.594 330.441 247.75 329.96 248.195 C 329.48 248.637 329.265 249.305 329.401 249.945 C 330.226 253.809 332.597 256.961 335.905 258.594 C 337.601 259.43 339.456 259.848 341.394 259.848 C 343.194 259.848 345.066 259.469 346.937 258.754 C 347.405 259.355 347.808 259.852 348.148 260.254 C 347.026 261.441 346.398 262.977 346.398 264.617 L 346.398 267.141 L 341.581 267.141 C 340.558 267.141 339.73 267.969 339.73 268.992 C 339.73 270.016 340.558 270.844 341.581 270.844 L 408.249 270.844 C 409.273 270.844 410.101 270.016 410.101 268.992 C 410.101 267.969 409.273 267.141 408.249 267.141 L 403.433 267.141 L 403.433 264.617 C 403.433 262.977 402.804 261.437 401.683 260.254 C 402.023 259.851 402.425 259.355 402.894 258.754 C 404.769 259.469 406.64 259.848 408.441 259.848 C 410.378 259.848 412.234 259.43 413.929 258.594 C 417.237 256.961 419.605 253.809 420.429 249.945 C 420.566 249.305 420.355 248.641 419.87 248.195 C 419.39 247.75 418.706 247.59 418.081 247.785 C 414.401 248.891 411.683 248.945 409.437 247.93 C 409.913 246.852 410.351 245.734 410.737 244.586 C 410.898 244.582 411.058 244.562 411.218 244.516 L 411.23 244.515 Z M 399.371 184.183 C 402.25 184.183 404.188 187.011 404.188 191.218 C 404.188 194.773 400.676 197.175 397.282 199.496 C 396.289 200.175 395.329 200.839 394.45 201.531 C 394.52 200.257 394.559 199.031 394.559 197.886 L 394.559 193.66 C 396.145 194.101 397.903 193.906 399.235 193.031 C 400.649 192.101 401.371 190.574 401.219 188.839 C 401.133 187.82 400.227 187.046 399.215 187.156 C 398.196 187.246 397.442 188.14 397.532 189.16 C 397.571 189.601 397.426 189.793 397.204 189.937 C 396.68 190.285 395.754 190.293 395.141 189.964 C 394.629 189.687 394.563 189.308 394.563 189 C 394.563 186.074 396.454 184.183 399.379 184.183 L 399.371 184.183 Z M 352.574 199.495 C 349.18 197.175 345.668 194.772 345.668 191.218 C 345.668 187.011 347.602 184.183 350.485 184.183 C 353.41 184.183 355.301 186.073 355.301 188.999 C 355.301 189.304 355.235 189.683 354.723 189.964 C 354.11 190.296 353.184 190.284 352.656 189.937 C 352.43 189.788 352.289 189.601 352.328 189.159 C 352.418 188.14 351.66 187.245 350.645 187.155 C 349.602 187.046 348.727 187.819 348.641 188.839 C 348.489 190.577 349.215 192.105 350.625 193.03 C 351.957 193.905 353.711 194.101 355.301 193.659 L 355.301 197.886 C 355.301 199.03 355.336 200.261 355.41 201.53 C 354.532 200.839 353.571 200.175 352.578 199.495 L 352.574 199.495 Z M 359 197.886 L 359 181.956 L 390.852 181.956 L 390.852 197.882 C 390.852 210.347 387.466 218.253 386.036 218.253 L 363.813 218.253 C 362.383 218.253 358.996 210.347 358.996 197.882 L 359 197.886 Z M 379.742 221.96 L 379.742 224.925 L 370.121 224.925 L 370.133 221.96 L 379.742 221.96 Z M 417.422 230.882 C 417.649 232.464 417.461 234.05 416.856 235.483 C 415.965 237.585 414.223 239.253 411.879 240.319 C 412.164 238.792 412.332 237.237 412.332 235.667 C 412.332 235.374 412.309 235.097 412.305 234.811 C 414.168 234.054 415.852 232.792 417.418 230.886 L 417.422 230.882 Z M 413.196 211.577 C 413.871 213.014 414.121 214.565 413.91 216.12 C 413.606 218.377 412.34 220.463 410.301 222.155 C 409.762 220.378 409.149 218.753 408.516 217.268 C 410.449 215.971 411.992 214.135 413.196 211.569 L 413.196 211.577 Z M 335.946 216.12 C 335.735 214.561 335.985 213.01 336.66 211.577 C 337.867 214.143 339.407 215.975 341.34 217.276 C 340.707 218.76 340.094 220.381 339.555 222.163 C 337.52 220.467 336.25 218.381 335.946 216.127 L 335.946 216.12 Z M 333 235.479 C 332.395 234.045 332.207 232.459 332.434 230.877 C 334.004 232.783 335.684 234.041 337.547 234.803 C 337.543 235.092 337.52 235.369 337.52 235.662 C 337.52 237.233 337.688 238.791 337.973 240.315 C 335.629 239.248 333.887 237.58 333 235.479 Z M 337.555 255.272 C 336.149 254.576 335.004 253.506 334.188 252.147 C 336.618 252.522 339.371 252.475 342.028 251.244 C 342.903 252.858 343.813 254.315 344.688 255.615 C 342.106 256.393 339.625 256.295 337.555 255.272 Z M 350.114 267.139 L 350.114 264.615 C 350.114 263.912 350.399 263.229 350.895 262.732 C 351.395 262.232 352.067 261.951 352.778 261.951 L 397.083 261.951 C 397.794 261.951 398.466 262.229 398.966 262.732 C 399.462 263.229 399.747 263.912 399.747 264.615 L 399.747 267.139 L 350.11 267.139 L 350.114 267.139 Z M 415.665 252.143 C 414.849 253.498 413.704 254.572 412.298 255.268 C 410.228 256.291 407.747 256.393 405.165 255.611 C 406.04 254.315 406.95 252.858 407.825 251.24 C 410.485 252.471 413.243 252.518 415.665 252.143 Z M 374.927 209.276 L 381.22 211.319 C 381.786 211.506 382.4 211.405 382.88 211.053 C 383.361 210.705 383.642 210.151 383.642 209.557 L 383.646 202.94 L 387.533 197.58 C 387.88 197.1 387.978 196.483 387.794 195.92 C 387.611 195.354 387.169 194.916 386.607 194.729 L 380.314 192.682 L 376.419 187.33 C 375.724 186.369 374.122 186.369 373.423 187.33 L 369.529 192.682 L 363.236 194.729 C 362.673 194.912 362.232 195.354 362.048 195.92 C 361.865 196.483 361.962 197.1 362.31 197.58 L 366.197 202.94 L 366.197 209.557 C 366.197 210.151 366.482 210.705 366.962 211.057 C 367.283 211.291 367.665 211.412 368.052 211.412 C 368.243 211.412 368.439 211.381 368.622 211.323 L 374.919 209.28 L 374.927 209.276 Z M 366.81 197.467 L 371.251 196.021 C 371.622 195.9 371.947 195.666 372.177 195.349 L 374.927 191.572 L 377.677 195.349 C 377.907 195.666 378.232 195.9 378.603 196.021 L 383.044 197.467 L 380.298 201.252 C 380.068 201.568 379.943 201.947 379.943 202.338 L 379.943 207.01 L 375.497 205.568 C 375.314 205.51 375.118 205.478 374.927 205.478 C 374.736 205.478 374.54 205.51 374.357 205.568 L 369.911 207.01 L 369.911 202.338 C 369.911 201.947 369.786 201.564 369.556 201.252 L 366.81 197.467 Z" id="object-1" transform="matrix(1, 0, 0, 1, 4.440892098500626e-16, 0)"/></svg>