<?xml version="1.0" encoding="utf-8"?>
<svg xmlns="http://www.w3.org/2000/svg" viewBox="194.3386 181.7238 92.5939 88.1372" width="92.5939px" height="88.1372px"><path d="M 209.896 210.237 L 209.896 241.346 C 209.896 242.025 210.271 242.654 210.869 242.974 L 224.115 250.107 L 221.13 256.072 C 220.704 256.928 220.997 257.967 221.81 258.47 L 239.658 269.579 C 239.955 269.767 240.299 269.861 240.634 269.861 C 240.974 269.861 241.314 269.767 241.611 269.579 L 259.459 258.47 C 260.275 257.963 260.568 256.912 260.131 256.056 L 257.104 250.131 L 270.397 242.974 C 270.998 242.654 271.369 242.025 271.369 241.345 L 271.369 210.236 C 271.369 209.557 270.994 208.928 270.397 208.608 L 257.104 201.451 L 260.131 195.526 C 260.568 194.67 260.275 193.619 259.459 193.111 L 241.611 182.002 C 241.013 181.631 240.252 181.631 239.654 182.002 L 221.806 193.111 C 220.994 193.615 220.701 194.654 221.126 195.51 L 224.111 201.475 L 210.865 208.607 C 210.263 208.928 209.892 209.557 209.892 210.236 L 209.896 210.237 Z M 256.06 256.229 L 240.634 265.834 L 225.196 256.225 L 227.376 251.869 L 239.759 258.537 C 240.032 258.686 240.333 258.76 240.638 258.76 C 240.938 258.76 241.243 258.686 241.516 258.537 L 253.848 251.897 L 256.063 256.232 L 256.06 256.229 Z M 225.201 195.362 L 240.639 185.752 L 256.065 195.358 L 253.85 199.694 L 241.518 193.053 C 240.971 192.76 240.311 192.76 239.764 193.053 L 227.381 199.721 L 225.202 195.365 L 225.201 195.362 Z M 213.599 211.342 L 240.634 196.783 L 267.669 211.342 L 267.669 240.24 L 240.634 254.799 L 213.599 240.24 L 213.599 211.342 Z M 240.634 252.088 C 240.329 252.088 240.021 252.013 239.736 251.853 L 217.513 239.447 C 216.927 239.119 216.563 238.502 216.563 237.83 L 216.563 213.838 C 216.563 213.17 216.923 212.553 217.509 212.225 L 239.732 199.733 C 240.298 199.416 240.982 199.416 241.544 199.733 L 263.767 212.19 C 264.349 212.518 264.712 213.135 264.712 213.807 L 264.712 238.018 C 264.712 238.694 264.345 239.315 263.751 239.639 L 248.196 248.194 C 247.302 248.686 246.173 248.358 245.685 247.463 C 245.189 246.569 245.517 245.44 246.415 244.948 L 261.013 236.92 L 261.013 214.889 L 240.646 203.471 L 220.275 214.924 L 220.275 236.744 L 241.548 248.623 C 242.443 249.123 242.763 250.248 242.263 251.143 C 241.923 251.748 241.294 252.092 240.646 252.092 L 240.634 252.088 Z M 248.126 237.365 C 248.513 237.365 248.896 237.243 249.216 237.009 C 249.696 236.661 249.978 236.103 249.978 235.509 L 249.982 228.236 L 254.259 222.349 C 254.607 221.869 254.704 221.251 254.521 220.689 C 254.337 220.126 253.896 219.685 253.333 219.501 L 246.415 217.251 L 242.134 211.368 C 241.439 210.408 239.833 210.408 239.138 211.368 L 234.857 217.251 L 227.939 219.501 C 227.376 219.685 226.935 220.126 226.751 220.689 C 226.568 221.255 226.665 221.868 227.013 222.349 L 231.29 228.236 L 231.294 235.509 C 231.294 236.103 231.579 236.657 232.056 237.009 C 232.536 237.357 233.157 237.454 233.716 237.271 L 240.634 235.025 L 247.552 237.271 C 247.739 237.333 247.931 237.361 248.122 237.361 L 248.126 237.365 Z M 246.278 227.638 L 246.278 232.966 L 241.208 231.322 C 241.021 231.259 240.829 231.232 240.638 231.232 C 240.443 231.232 240.251 231.263 240.068 231.322 L 234.997 232.966 L 234.997 227.638 C 234.997 227.247 234.872 226.865 234.642 226.552 L 231.509 222.24 L 236.579 220.591 C 236.95 220.47 237.275 220.236 237.505 219.919 L 240.638 215.611 L 243.771 219.919 C 244.001 220.236 244.325 220.47 244.696 220.591 L 249.767 222.24 L 246.634 226.552 C 246.407 226.868 246.282 227.247 246.282 227.638 L 246.278 227.638 Z M 286.801 215.368 L 282.63 225.79 L 286.801 236.212 C 287.028 236.782 286.958 237.427 286.614 237.939 C 286.266 238.446 285.696 238.751 285.079 238.751 L 276.188 238.751 C 275.165 238.751 274.337 237.923 274.337 236.899 C 274.337 235.876 275.165 235.048 276.188 235.048 L 282.34 235.048 L 278.911 226.478 C 278.735 226.036 278.735 225.544 278.911 225.103 L 282.34 216.532 L 276.188 216.532 C 275.165 216.532 274.337 215.704 274.337 214.681 C 274.337 213.657 275.165 212.829 276.188 212.829 L 285.079 212.829 C 285.692 212.829 286.266 213.134 286.614 213.642 C 286.958 214.149 287.028 214.798 286.801 215.368 Z M 194.473 236.212 L 198.645 225.79 L 194.473 215.368 C 194.247 214.798 194.317 214.153 194.661 213.641 C 195.009 213.134 195.579 212.829 196.196 212.829 L 205.087 212.829 C 206.11 212.829 206.938 213.657 206.938 214.68 C 206.938 215.704 206.11 216.532 205.087 216.532 L 198.934 216.532 L 202.364 225.102 C 202.54 225.544 202.54 226.036 202.364 226.477 L 198.934 235.048 L 205.087 235.048 C 206.11 235.048 206.938 235.876 206.938 236.899 C 206.938 237.923 206.11 238.751 205.087 238.751 L 196.192 238.755 C 195.579 238.755 195.005 238.45 194.657 237.942 C 194.313 237.434 194.243 236.786 194.47 236.216 L 194.473 236.212 Z" id="object-2" transform="matrix(1, 0, 0, 1, 4.440892098500626e-16, 0)"/></svg>