<?xml version="1.0" encoding="UTF-8"?>
<svg class="chessimg" id="Layer_2" data-name="Layer 2" xmlns="http://www.w3.org/2000/svg" viewBox="0 0 16.45 29.45">
  <g id="Layer_1-2" data-name="Layer 1">
    <path d="M15.86,21.52l-2.73-2.73v-2.79c1.02-1.17,1.6-2.67,1.6-4.26,0-2.17-1.09-5.06-2.91-6.84,.24-.33,.39-.74,.39-1.18,0-1.1-.9-2-2-2h-.01c-.14-.97-.96-1.72-1.97-1.72s-1.83,.75-1.97,1.72h-.01c-1.1,0-2,.9-2,2,0,.44,.15,.85,.39,1.18-1.82,1.77-2.91,4.66-2.91,6.84,0,1.59,.58,3.1,1.6,4.26v2.78l-2.74,2.75c-.37,.37-.58,.88-.58,1.41v4.51c0,1.1,.9,2,2,2H14.45c1.1,0,2-.9,2-2v-4.51c0-.53-.21-1.04-.59-1.41ZM7.37,14.09c-.28-.1-.54-.24-.77-.44-.56-.47-.88-1.17-.88-1.91,0-1.08,.53-2.39,1.15-3.31,.36,.33,.83,.54,1.35,.54s1-.21,1.35-.54c.62,.92,1.15,2.23,1.15,3.31,0,.74-.32,1.44-.9,1.92-.66,.57-1.63,.71-2.45,.43Zm-.05,4.1c.28,.04,.56,.06,.85,.06,.02,0,.04,0,.05,0,0,0,.01,0,.02,0,.3,0,.6-.02,.89-.06v1.22h-1.81v-1.22Zm5.13,7.26H4v-1.68l.52-.52s0,0,.01,0c.08,.03,.16,.05,.24,.08,.05,.01,.09,.03,.13,.04,.13,.03,.27,.04,.41,.04h5.81c.14,0,.28-.01,.41-.04,.05-.01,.09-.03,.14-.04,.08-.02,.16-.04,.24-.08,0,0,0,0,0,0l.52,.52v1.68Z"/>
  </g>
</svg>