<?xml version="1.0" encoding="UTF-8"?>
<svg class="chessimg" id="Layer_2" data-name="Layer 2" xmlns="http://www.w3.org/2000/svg" viewBox="0 0 27.03 26.59">
  <g id="Layer_1-2" data-name="Layer 1">
    <path d="M27.03,13.59c0-4.35-3.54-7.89-7.89-7.89-.76,0-1.49,.11-2.19,.32,.47-.37,.78-.93,.78-1.58,0-1.1-.9-2-2-2h-.22v-.45c0-1.1-.9-2-2-2s-2,.9-2,2v.45h-.22c-1.1,0-2,.9-2,2,0,.65,.31,1.22,.79,1.58-.71-.21-1.44-.32-2.2-.32C3.54,5.7,0,9.24,0,13.59c0,1.89,.68,3.7,1.9,5.12l-.29,5.78c-.03,.55,.17,1.08,.55,1.48,.38,.4,.9,.62,1.45,.62H23.3c.54,0,1.07-.22,1.44-.62,.38-.39,.58-.92,.55-1.47l-.24-5.7c1.26-1.44,1.97-3.29,1.97-5.21ZM15.73,6.45s.08,0,.12-.01c-.11,.05-.23,.11-.34,.17v-.15h.22Zm-4.43,0h.22v.16c-.12-.06-.24-.12-.36-.18,.05,0,.09,.01,.14,.01Zm-3.41,3.26c1.6,0,3.05,1.01,3.64,2.57l.14,.36c.32,.77,1.08,1.23,1.93,1.2,.83-.03,1.57-.6,1.84-1.4l.06-.16c.55-1.54,2.01-2.57,3.65-2.57,2.14,0,3.89,1.75,3.89,3.89,0,.88-.32,1.73-.87,2.43l-17.34-.07c-.52-.67-.82-1.48-.82-2.35,0-2.14,1.75-3.89,3.89-3.89Zm-2.18,12.89l.13-2.64,15.26,.06,.11,2.58H5.71Z"/>
  </g>
</svg>