<?xml version="1.0" encoding="UTF-8"?>
<svg class="chessimg" id="Layer_2" data-name="Layer 2" xmlns="http://www.w3.org/2000/svg" viewBox="0 0 18.56 23.65">
  <g id="Layer_1-2" data-name="Layer 1">
    <path fill="white" d="M14.45,23.65H2c-1.1,0-2-.9-2-2V6.7c0-.41,.13-.82,.37-1.15L3.69,.85c.32-.45,.81-.75,1.35-.83,.55-.08,1.1,.07,1.53,.41l3.6,2.86,7.32,3.81c.93,.48,1.33,1.6,.92,2.56l-1.49,3.48c-.32,.74-1.04,1.21-1.84,1.21h-.57l1.37,1.37c.38,.38,.59,.88,.59,1.41v4.51c0,1.1-.9,2-2,2Zm-10.45-4H12.45v-1.68l-4.2-4.2c-.57-.57-.74-1.43-.43-2.18,.31-.75,1.04-1.23,1.85-1.23h4.08l.24-.56-5.84-3.04c-.11-.06-.22-.13-.32-.21l-2.09-1.66-1.73,2.45v12.31Z"/>
  </g>
</svg>