<?xml version="1.0" encoding="UTF-8"?>
<svg class="chessimg" id="Layer_2" data-name="Layer 2" xmlns="http://www.w3.org/2000/svg" viewBox="0 0 16.45 24.22">
  <g id="Layer_1-2" data-name="Layer 1">
    <path d="M15.86,16.3l-2.73-2.73v-2.79c1.02-1.17,1.6-2.67,1.6-4.26,0-3.59-2.92-6.51-6.51-6.51S1.72,2.92,1.72,6.51c0,1.59,.58,3.1,1.6,4.26v2.78l-2.74,2.75c-.37,.37-.58,.88-.58,1.41v4.51c0,1.1,.9,2,2,2H14.45c1.1,0,2-.9,2-2v-4.51c0-.53-.21-1.04-.59-1.41Zm-8.54-3.34c.29,.04,.58,.06,.88,.06,0,0,.02,0,.02,0,0,0,0,0,0,0,.3,0,.61-.02,.91-.06v1.22h-1.81v-1.22Zm.9-8.96c1.38,0,2.51,1.13,2.51,2.51,0,.74-.32,1.44-.9,1.92-.66,.57-1.65,.71-2.48,.42-.27-.1-.52-.24-.74-.43-.56-.47-.88-1.17-.88-1.91,0-1.38,1.12-2.51,2.5-2.51Zm4.23,16.22H4v-1.68l.52-.52s0,0,.01,0c.07,.03,.15,.05,.23,.07,.05,.01,.1,.04,.15,.05,.13,.03,.27,.04,.41,.04h5.81c.14,0,.28-.01,.41-.04,.04,0,.08-.03,.13-.04,.09-.02,.17-.05,.26-.08,0,0,0,0,0,0l.52,.52v1.68Z"/>
  </g>
</svg>