<?xml version="1.0" encoding="UTF-8"?>
<svg class="chessimg" id="Layer_2" data-name="Layer 2" xmlns="http://www.w3.org/2000/svg" viewBox="0 0 27.9 22.02">
  <g id="Layer_1-2" data-name="Layer 1">
    <path fill="white" d="M27.9,6.66c0-1.58-1.29-2.88-2.88-2.88s-2.87,1.29-2.87,2.88c0,.94,.46,1.77,1.16,2.29l-3.07,1.16-4.82-4.67s-.03-.02-.05-.04c.91-.48,1.53-1.43,1.53-2.53,0-1.58-1.29-2.87-2.87-2.87s-2.87,1.29-2.87,2.87c0,1.1,.62,2.04,1.53,2.52,0,0-.02,.01-.03,.02l-4.97,4.69-2.92-1.09c.6-.53,.98-1.29,.98-2.15,0-1.58-1.29-2.87-2.87-2.87S0,5.29,0,6.87c0,.84,.37,1.58,.94,2.11-.39,.45-.58,1.05-.47,1.65l1.74,9.74c.17,.95,1,1.65,1.97,1.65H23.87c.98,0,1.82-.71,1.97-1.68l1.58-9.74c.1-.64-.12-1.28-.58-1.73,.64-.53,1.07-1.32,1.07-2.21Zm-5.74,11.36H5.85l-.83-4.64,2.42,.91c.72,.27,1.52,.1,2.07-.42l4.48-4.24,4.36,4.22c.56,.54,1.37,.71,2.09,.43l2.46-.92-.75,4.65Z"/>
  </g>
</svg>