<?xml version="1.0" encoding="UTF-8"?>
<svg class="chessimg" id="Layer_2" data-name="Layer 2" xmlns="http://www.w3.org/2000/svg" viewBox="0 0 16.45 27.65">
  <g id="Layer_1-2" data-name="Layer 1">
    <path fill="white" d="M14.45,14c1.1,0,2-.9,2-2V4.05c0-1.1-.9-2-2-2h-3.36v-.05c0-1.1-.9-2-2-2h-1.73c-1.1,0-2,.9-2,2v.05H2C.9,2.05,0,2.94,0,4.05v7.95c0,1.1,.9,2,2,2h1.32v2.98l-2.74,2.75c-.37,.38-.58,.88-.58,1.41v4.51c0,1.1,.9,2,2,2H14.45c1.1,0,2-.89,2-2v-4.51c0-.53-.21-1.04-.59-1.41l-2.73-2.73v-2.99h1.32ZM4,6.05h1.48c.27,.78,1.01,1.34,1.88,1.34h1.73c.87,0,1.6-.56,1.88-1.34h1.48v3.95H4v-3.95ZM12.45,23.65H4v-1.68l.75-.75c.18,.05,.37,.08,.57,.08h5.81c.2,0,.39-.03,.57-.08l.75,.75v1.68Zm-3.32-6.35h-1.81v-3.3h1.81v3.3Z"/>
  </g>
</svg>