<?xml version="1.0" encoding="UTF-8"?>
<svg id="Layer_2" data-name="Layer 2" xmlns="http://www.w3.org/2000/svg" viewBox="0 0 659.85 549">
  <defs>
    <style>
      .cls-1 {
        fill: #fff;
        stroke: #231f20;
        stroke-miterlimit: 10;
        stroke-width: 6px;
      }
    </style>
  </defs>
  <g id="Layer_1-2" data-name="Layer 1">
    <g>
      <path class="cls-1" d="M656.85,255.13c0,34.49-27.96,62.45-62.45,62.45s-62.45-27.96-62.45-62.45,27.96-62.45,62.45-62.45,62.45,27.96,62.45,62.45Z"/>
      <path class="cls-1" d="M612.93,255.13c-3.67-1.71-7.92-2.93-12.54-3.5v-25.16c7.93,1.64,13.67,6.43,13.67,12.1h11.98c0-9.96-11.05-18.26-25.66-20.07v-6.45h-11.98v6.46c-14.61,1.81-25.65,10.1-25.65,20.06,0,6.81,5.17,12.85,13.12,16.56,3.67,1.71,7.92,2.93,12.53,3.49v25.14c-7.93-1.64-13.67-6.43-13.67-12.1h-11.98v.03c0,9.96,11.04,18.25,25.65,20.06v6.46h11.98v-6.45c14.61-1.81,25.66-10.1,25.66-20.06,0-6.81-5.17-12.86-13.12-16.56Zm-38.19-16.56c0-5.66,5.75-10.46,13.67-12.1v24.19c-7.93-1.64-13.67-6.43-13.67-12.1Zm25.65,45.2v-24.19c7.93,1.63,13.67,6.43,13.67,12.09s-5.74,10.46-13.67,12.1Z"/>
    </g>
    <g>
      <circle class="cls-1" cx="65.45" cy="483.54" r="62.45"/>
      <path class="cls-1" d="M71.66,511.41v-54.82c10.68,2.32,19.11,10.73,21.43,21.43h11.24c-2.57-16.82-15.85-30.1-32.67-32.67v-6.91h-11.96v6.91c-18.76,2.87-33.13,19.07-33.13,38.66s14.37,35.79,33.13,38.65v6h11.96v-6c16.82-2.57,30.1-15.85,32.67-32.67h-11.24c-2.32,10.7-10.75,19.11-21.43,21.43Zm-11.96,0c-12.62-2.74-22.06-13.99-22.06-27.41s9.45-24.67,22.06-27.41v54.82Z"/>
    </g>
    <g>
      <g>
        <path class="cls-1" d="M233.02,21.91c-1.09,7.97-2.51,15.79-4.22,23.65h-85.14c1.71-7.86,3.13-15.68,4.22-23.65h85.14Z"/>
        <path class="cls-1" d="M179.75,76.8c-2.33,7.45-4.7,14.9-7.08,22.34,2.37-7.44,4.75-14.89,7.08-22.34Z"/>
        <path class="cls-1" d="M243.26,87.97c-1.18,3.73-2.36,7.45-3.55,11.17-.59,1.86-1.18,3.72-1.76,5.57,.58-1.85,1.16-3.71,1.75-5.57,1.19-3.72,2.38-7.44,3.56-11.17Z"/>
        <path class="cls-1" d="M233.02,21.91c-1.09,7.97-2.51,15.79-4.22,23.65h-85.14c1.71-7.86,3.13-15.68,4.22-23.65h85.14Z"/>
        <path class="cls-1" d="M179.75,76.8c-2.33,7.45-4.7,14.9-7.08,22.34,2.37-7.44,4.75-14.89,7.08-22.34Z"/>
        <path class="cls-1" d="M243.26,87.97c-1.18,3.73-2.36,7.45-3.55,11.17-.59,1.86-1.18,3.72-1.76,5.57,.58-1.85,1.16-3.71,1.75-5.57,1.19-3.72,2.38-7.44,3.56-11.17Z"/>
        <path class="cls-1" d="M233.02,21.91c-1.09,7.97-2.51,15.79-4.22,23.65h-85.14c1.71-7.86,3.13-15.68,4.22-23.65h85.14Z"/>
      </g>
      <path class="cls-1" d="M233.02,21.91c-1.09,7.97-2.51,15.79-4.22,23.65h-85.14c1.71-7.86,3.13-15.68,4.22-23.65h85.14Z"/>
      <path class="cls-1" d="M179.75,76.8c-2.33,7.45-4.7,14.9-7.08,22.34,2.37-7.44,4.75-14.89,7.08-22.34Z"/>
      <path class="cls-1" d="M243.26,87.97c-1.18,3.73-2.36,7.45-3.55,11.17-.59,1.86-1.18,3.72-1.76,5.57,.58-1.85,1.16-3.71,1.75-5.57,1.19-3.72,2.38-7.44,3.56-11.17Z"/>
      <path class="cls-1" d="M305.92,87.27v56.11h-15.99c1.65-7.5,3.59-14.94,5.69-22.35,2.13-7.47,4.42-14.91,6.73-22.34,1.19-3.81,2.39-7.61,3.57-11.42Z"/>
      <path class="cls-1" d="M300.72,3.46H150.32c-10.39,0-19.15,7.73-20.43,18.04-5.88,47.32-27.87,91.28-35,138.33-1.9,12.5,7.7,23.79,20.34,23.79h150.58c1.75-.05,3.36-.14,4.82-.3,12.24-1.29,14.86-6.45,15.88-17.35,.01-.08,.02-.17,.03-.25,0-.12,.02-.24,.03-.36,1.06-8.18,2.32-16.84,3.18-21.14,.06-.28,.12-.56,.18-.84,1.65-7.5,3.59-14.94,5.69-22.35,2.13-7.47,4.42-14.91,6.73-22.34,1.19-3.81,2.39-7.61,3.57-11.42,6.18-19.83,12.08-39.71,15.17-60.18,1.88-12.45-7.79-23.63-20.37-23.63ZM147.88,21.91h85.14c-1.09,7.97-2.51,15.79-4.22,23.65h-85.14c1.71-7.86,3.13-15.68,4.22-23.65Zm143.73,54.43c-.05,.15-.09,.31-.14,.46-2.28,7.3-4.6,14.59-6.93,21.89-.05,.15-.1,.3-.14,.45l-.82,2.6c-2.07,6.56-4.09,13.14-6.05,19.75-2.09,7.41-4.02,14.84-5.77,22.34-1.54,7.43-2.83,14.82-3.81,22.34H111.54c.98-7.52,2.26-14.91,3.81-22.34,1.74-7.5,3.68-14.93,5.77-22.34,2.21-7.48,4.51-14.92,6.86-22.35,1.25-3.93,2.51-7.86,3.75-11.79,1.12-3.52,2.23-7.03,3.33-10.55,2.25-7.42,4.41-14.86,6.42-22.35h156.42c-1.97,7.34-4.08,14.62-6.29,21.89Z"/>
      <path class="cls-1" d="M233.02,21.91c-1.09,7.97-2.51,15.79-4.22,23.65h-85.14c1.71-7.86,3.13-15.68,4.22-23.65h85.14Z"/>
      <path class="cls-1" d="M157.4,76.8c-2.33,7.45-4.7,14.9-7.07,22.34h-22.35c1.25-3.93,2.51-7.86,3.75-11.79,1.12-3.52,2.23-7.03,3.33-10.55h22.34Z"/>
      <path class="cls-1" d="M150.33,99.14c-2.36,7.43-4.66,14.87-6.86,22.35h-22.35c2.21-7.48,4.51-14.92,6.86-22.35h22.35Z"/>
      <path class="cls-1" d="M143.47,121.49c-2.1,7.41-4.03,14.84-5.78,22.34h-22.34c1.74-7.5,3.68-14.93,5.77-22.34h22.35Z"/>
      <path class="cls-1" d="M137.69,143.83c-1.55,7.43-2.83,14.82-3.81,22.34h-22.34c.98-7.52,2.26-14.91,3.81-22.34h22.34Z"/>
      <path class="cls-1" d="M284.4,99.14l-.82,2.6c-2.07,6.56-4.09,13.14-6.05,19.75h-22.34c2.21-7.48,4.51-14.92,6.86-22.35h22.35Z"/>
      <path class="cls-1" d="M297.9,54.45c-1.97,7.34-4.08,14.62-6.29,21.89-.05,.15-.09,.31-.14,.46h-22.34c2.25-7.42,4.41-14.86,6.42-22.35h22.35Z"/>
      <path class="cls-1" d="M163.83,54.45c-2.02,7.49-4.17,14.93-6.43,22.35h-22.34c2.25-7.42,4.41-14.86,6.42-22.35h22.35Z"/>
      <path class="cls-1" d="M186.17,54.45c-2.01,7.49-4.17,14.93-6.42,22.35h-22.35c2.26-7.42,4.41-14.86,6.43-22.35h22.34Z"/>
      <path class="cls-1" d="M208.52,54.45c-2.02,7.49-4.17,14.93-6.43,22.35h-22.34c2.25-7.42,4.41-14.86,6.42-22.35h22.35Z"/>
      <path class="cls-1" d="M230.86,54.45c-2.01,7.49-4.17,14.93-6.42,22.35h-22.35c2.26-7.42,4.41-14.86,6.43-22.35h22.34Z"/>
      <path class="cls-1" d="M253.21,54.45c-2.02,7.49-4.17,14.93-6.43,22.35h-22.34c2.25-7.42,4.41-14.86,6.42-22.35h22.35Z"/>
      <path class="cls-1" d="M275.55,54.45c-2.01,7.49-4.17,14.93-6.42,22.35h-22.35c2.26-7.42,4.41-14.86,6.43-22.35h22.34Z"/>
      <path class="cls-1" d="M269.13,76.8c-2.33,7.45-4.7,14.9-7.08,22.34h-22.34c1.19-3.72,2.37-7.44,3.55-11.17,1.18-3.72,2.36-7.44,3.52-11.17h22.35Z"/>
      <path class="cls-1" d="M246.78,76.8c-1.16,3.73-2.34,7.45-3.52,11.17-1.18,3.73-2.37,7.45-3.56,11.17h-22.34c2.37-7.44,4.75-14.89,7.08-22.34h22.34Z"/>
      <path class="cls-1" d="M224.44,76.8c-2.33,7.45-4.71,14.9-7.08,22.34h-22.35c2.38-7.44,4.75-14.89,7.08-22.34h22.35Z"/>
      <path class="cls-1" d="M202.09,76.8c-2.33,7.45-4.7,14.9-7.08,22.34h-22.34c2.38-7.44,4.75-14.89,7.08-22.34h22.34Z"/>
      <path class="cls-1" d="M179.75,76.8c-2.33,7.45-4.71,14.9-7.08,22.34h-22.34c2.37-7.44,4.74-14.89,7.07-22.34h22.35Z"/>
      <path class="cls-1" d="M172.67,99.14c-2.35,7.43-4.65,14.87-6.86,22.35h-22.34c2.2-7.48,4.5-14.92,6.86-22.35h22.34Z"/>
      <path class="cls-1" d="M195.01,99.14c-2.35,7.43-4.65,14.87-6.85,22.35h-22.35c2.21-7.48,4.51-14.92,6.86-22.35h22.34Z"/>
      <path class="cls-1" d="M217.36,99.14c-2.35,7.43-4.65,14.87-6.86,22.35h-22.34c2.2-7.48,4.5-14.92,6.85-22.35h22.35Z"/>
      <path class="cls-1" d="M239.7,99.14c-.59,1.86-1.17,3.72-1.75,5.57-1.74,5.58-3.45,11.17-5.1,16.78h-22.35c2.21-7.48,4.51-14.92,6.86-22.35h22.34Z"/>
      <path class="cls-1" d="M262.05,99.14c-2.35,7.43-4.65,14.87-6.86,22.35h-22.34c1.65-5.61,3.36-11.2,5.1-16.78,.58-1.85,1.17-3.71,1.76-5.57h22.34Z"/>
      <path class="cls-1" d="M243.26,87.97c-1.18,3.73-2.36,7.45-3.55,11.17-.59,1.86-1.18,3.72-1.76,5.57,.58-1.85,1.16-3.71,1.75-5.57,1.19-3.72,2.38-7.44,3.56-11.17Z"/>
      <path class="cls-1" d="M277.53,121.49c-2.09,7.41-4.02,14.84-5.77,22.34h-22.34c1.74-7.5,3.68-14.93,5.77-22.34h22.34Z"/>
      <path class="cls-1" d="M255.19,121.49c-2.09,7.41-4.03,14.84-5.77,22.34h-22.35c1.75-7.51,3.68-14.93,5.78-22.34h22.34Z"/>
      <path class="cls-1" d="M232.85,121.49c-2.1,7.41-4.03,14.83-5.78,22.34h-22.34c1.74-7.51,3.68-14.93,5.77-22.34h22.35Z"/>
      <path class="cls-1" d="M210.5,121.49c-2.09,7.41-4.03,14.83-5.77,22.34h-22.35c1.75-7.51,3.68-14.93,5.78-22.34h22.34Z"/>
      <path class="cls-1" d="M188.16,121.49c-2.1,7.41-4.03,14.83-5.78,22.34h-22.34c1.74-7.51,3.68-14.93,5.77-22.34h22.35Z"/>
      <path class="cls-1" d="M165.81,121.49c-2.09,7.41-4.03,14.83-5.77,22.34h-22.35c1.75-7.5,3.68-14.93,5.78-22.34h22.34Z"/>
      <path class="cls-1" d="M160.04,143.83c-1.55,7.43-2.83,14.82-3.81,22.34h-22.35c.98-7.52,2.26-14.91,3.81-22.34h22.35Z"/>
      <path class="cls-1" d="M182.38,143.83c-1.54,7.43-2.83,14.82-3.81,22.34h-22.34c.98-7.52,2.26-14.91,3.81-22.34h22.34Z"/>
      <path class="cls-1" d="M204.73,143.83c-1.55,7.43-2.83,14.82-3.81,22.34h-22.35c.98-7.52,2.27-14.91,3.81-22.34h22.35Z"/>
      <path class="cls-1" d="M227.07,143.83c-1.54,7.43-2.83,14.82-3.81,22.34h-22.34c.98-7.52,2.26-14.91,3.81-22.34h22.34Z"/>
      <path class="cls-1" d="M249.42,143.83c-1.55,7.43-2.83,14.82-3.81,22.34h-22.35c.98-7.52,2.27-14.91,3.81-22.34h22.35Z"/>
      <path class="cls-1" d="M271.76,143.83c-1.54,7.43-2.83,14.82-3.81,22.34h-22.34c.98-7.52,2.26-14.91,3.81-22.34h22.34Z"/>
      <path class="cls-1" d="M323.7,23.59V162.58c0,11.38-9.22,20.6-20.59,20.6l-32.48,.14c12.24-1.29,14.86-6.45,15.88-17.35l19.41-.25V87.27c6.18-19.83,12.08-39.71,15.17-60.18,1.88-12.45-7.79-23.63-20.37-23.63v0l2.39-.46c11.37,0,20.59,9.22,20.59,20.59Z"/>
      <path class="cls-1" d="M305.92,87.27v56.11h-15.99c1.65-7.5,3.59-14.94,5.69-22.35,2.13-7.47,4.42-14.91,6.73-22.34,1.19-3.81,2.39-7.61,3.57-11.42Z"/>
      <path class="cls-1" d="M291.47,76.8c-2.28,7.3-4.6,14.59-6.93,21.89-.05,.15-.1,.3-.14,.45h-22.35c2.38-7.44,4.75-14.89,7.08-22.34h22.34Z"/>
      <path class="cls-1" d="M305.92,87.27v11.42h-3.57c1.19-3.81,2.39-7.61,3.57-11.42Z"/>
      <path class="cls-1" d="M305.92,98.69v22.34h-10.3c2.13-7.47,4.42-14.91,6.73-22.34h3.57Z"/>
      <path class="cls-1" d="M305.92,121.03v22.35h-15.99c1.65-7.5,3.59-14.94,5.69-22.35h10.3Z"/>
      <path class="cls-1" d="M305.92,143.38v22.34l-19.41,.25c.01-.08,.02-.17,.03-.25,0-.12,.02-.24,.03-.36,1.06-8.18,2.32-16.84,3.18-21.14,.06-.28,.12-.56,.18-.84h15.99Z"/>
    </g>
  </g>
</svg>