<?xml version="1.0" encoding="UTF-8"?>
<svg id="Layer_2" data-name="Layer 2" xmlns="http://www.w3.org/2000/svg" viewBox="0 0 629.39 618.45">
  <defs>
    <style>
      .cls-1 {
        fill: #fff;
      }

      .cls-1, .cls-2 {
        stroke: #231f20;
        stroke-miterlimit: 10;
        stroke-width: 6px;
      }

      .cls-2 {
        fill: #231f20;
      }
    </style>
  </defs>
  <g id="Layer_1-2" data-name="Layer 1">
    <g>
      <path class="cls-1" d="M623.44,10.71v245.72c-11.56,2.83-23.15,5.31-34.75,7.44V45.46c0-4.26-3.45-7.72-7.71-7.72H138.93c-4.26,0-7.71,3.46-7.71,7.72v99.11c-12.43-10.95-24-22.18-34.75-33.5V10.71c0-4.26,3.45-7.71,7.71-7.71h511.55c4.25,0,7.71,3.45,7.71,7.71Z"/>
      <rect class="cls-1" x="131.22" y="37.74" width="457.47" height="304.99" rx="7.71" ry="7.71"/>
      <path class="cls-2" d="M623.44,256.43v113.33c0,4.26-3.46,7.71-7.71,7.71H104.18c-4.26,0-7.71-3.45-7.71-7.71V111.07c10.75,11.32,22.32,22.55,34.75,33.5v190.45c0,4.26,3.45,7.71,7.71,7.71h442.05c4.26,0,7.71-3.45,7.71-7.71v-71.15c11.6-2.13,23.19-4.61,34.75-7.44Z"/>
      <rect class="cls-2" x="463.8" y="105.16" width="61.8" height="61.8" rx="7.71" ry="7.71"/>
      <rect class="cls-1" x="271.43" y="105.16" width="159.23" height="61.8" rx="7.71" ry="7.71"/>
      <rect class="cls-1" x="367.4" y="212.5" width="162.92" height="84.27" rx="7.71" ry="7.71"/>
      <path class="cls-1" d="M514.9,212.5h7.65c4.29,0,7.77,3.48,7.77,7.77v7.65h-15.42v-15.42h0Z"/>
      <rect class="cls-1" x="499.47" y="212.5" width="15.42" height="15.42"/>
      <path class="cls-1" d="M484.05,212.5h15.42v15.42h-8.83c-3.64,0-6.59-2.95-6.59-6.59v-8.83h0Z"/>
      <g>
        <path class="cls-1" d="M445.16,262.41h-.06c-3.98,0-7.31-3.03-7.68-6.99l-1.79-19.06c-.43-4.52,3.13-8.43,7.68-8.43h3.64c4.54,0,8.1,3.91,7.68,8.43l-1.79,19.06c-.37,3.96-3.7,6.99-7.68,6.99Z"/>
        <circle class="cls-1" cx="445.13" cy="276.82" r="7.72"/>
      </g>
      <g>
        <polygon class="cls-1" points="570.89 424.98 551.44 470.8 512.54 562.44 512.16 563.33 54.68 563.33 55.06 562.44 70.38 526.35 74.51 516.62 93.96 470.8 113.41 424.98 570.89 424.98"/>
        <path class="cls-2" d="M623.63,423.5l-72.51,170.82c-5.44,12.81-18,21.13-31.92,21.13H127.84c-3.14-5.9-6.35-11.69-9.61-17.37-6.95-12.07-14.14-23.66-21.48-34.75h415.41l.38-.89h.71l19.45-45.82,38.9-91.64H113.41l-19.45,45.82-19.45,45.82-4.13,9.73c-7.57-9.89-15.19-19.29-22.78-28.2l36.84-86.78c5.44-12.81,18.01-21.13,31.92-21.13h504.02l1.39,2.41c5.42,9.42,6.11,20.84,1.86,30.85Z"/>
        <path class="cls-1" d="M118.23,598.08H5.19l42.41-99.93c7.59,8.91,15.21,18.31,22.78,28.2l-15.32,36.09-.38,.89h42.07c7.34,11.09,14.53,22.68,21.48,34.75Z"/>
        <polygon class="cls-1" points="571.6 424.98 532.7 516.62 513.25 562.44 512.54 562.44 512.16 563.33 54.68 563.33 55.06 562.44 70.38 526.35 74.51 516.62 93.96 470.8 113.41 424.98 571.6 424.98"/>
        <g>
          <g>
            <polygon class="cls-1" points="532.7 516.62 513.25 562.44 467.43 562.44 486.88 516.62 532.7 516.62"/>
            <polygon class="cls-1" points="467.43 562.44 421.61 562.44 441.06 516.62 486.88 516.62 467.43 562.44"/>
            <polygon class="cls-1" points="441.07 516.62 421.62 562.44 375.8 562.44 395.25 516.62 441.07 516.62"/>
            <polygon class="cls-1" points="211.97 516.62 192.52 562.44 146.7 562.44 166.15 516.62 211.97 516.62"/>
            <polygon class="cls-1" points="146.7 562.44 100.88 562.44 120.33 516.62 166.15 516.62 146.7 562.44"/>
            <polygon class="cls-1" points="120.33 516.62 100.88 562.44 55.06 562.44 70.38 526.35 74.51 516.62 120.33 516.62"/>
          </g>
          <g>
            <polygon class="cls-1" points="552.15 470.8 532.7 516.62 486.88 516.62 506.33 470.8 552.15 470.8"/>
            <polygon class="cls-1" points="486.88 516.62 441.06 516.62 460.51 470.8 506.33 470.8 486.88 516.62"/>
            <polygon class="cls-1" points="441.06 516.62 395.24 516.62 414.69 470.8 460.51 470.8 441.06 516.62"/>
            <polygon class="cls-1" points="414.69 470.8 395.25 516.62 349.43 516.62 368.87 470.8 414.69 470.8"/>
            <polygon class="cls-1" points="368.87 470.8 349.43 516.62 303.61 516.62 323.05 470.8 368.87 470.8"/>
            <polygon class="cls-1" points="323.05 470.8 303.61 516.62 257.79 516.62 277.23 470.8 323.05 470.8"/>
            <polygon class="cls-1" points="277.23 470.8 257.79 516.62 211.97 516.62 231.41 470.8 277.23 470.8"/>
            <polygon class="cls-1" points="211.97 516.62 166.15 516.62 185.6 470.8 231.42 470.8 211.97 516.62"/>
            <polygon class="cls-1" points="166.15 516.62 120.33 516.62 139.78 470.8 185.6 470.8 166.15 516.62"/>
            <polygon class="cls-1" points="139.78 470.8 120.33 516.62 74.51 516.62 93.96 470.8 139.78 470.8"/>
          </g>
          <g>
            <polygon class="cls-1" points="571.6 424.98 552.15 470.8 506.33 470.8 525.78 424.98 571.6 424.98"/>
            <polygon class="cls-1" points="525.78 424.98 506.33 470.8 460.51 470.8 479.96 424.98 525.78 424.98"/>
            <polygon class="cls-1" points="479.96 424.98 460.51 470.8 414.69 470.8 434.14 424.98 479.96 424.98"/>
            <polygon class="cls-1" points="434.14 424.98 414.69 470.8 368.87 470.8 388.32 424.98 434.14 424.98"/>
            <polygon class="cls-1" points="388.32 424.98 368.87 470.8 323.06 470.8 342.5 424.98 388.32 424.98"/>
            <polygon class="cls-1" points="342.5 424.98 323.06 470.8 277.24 470.8 296.69 424.98 342.5 424.98"/>
            <polygon class="cls-1" points="296.69 424.98 277.24 470.8 231.42 470.8 250.87 424.98 296.69 424.98"/>
            <polygon class="cls-1" points="250.87 424.98 231.42 470.8 185.6 470.8 205.05 424.98 250.87 424.98"/>
            <polygon class="cls-1" points="205.05 424.98 185.6 470.8 139.78 470.8 159.23 424.98 205.05 424.98"/>
            <polygon class="cls-1" points="159.23 424.98 139.78 470.8 93.96 470.8 113.41 424.98 159.23 424.98"/>
          </g>
        </g>
        <path class="cls-1" d="M127.84,615.45H35.24c-12.4,0-23.86-6.62-30.05-17.37H118.23c3.26,5.68,6.47,11.47,9.61,17.37Z"/>
      </g>
    </g>
  </g>
</svg>