<?xml version="1.0" encoding="UTF-8"?>
<svg id="Layer_2" data-name="Layer 2" xmlns="http://www.w3.org/2000/svg" viewBox="0 0 556.9 338.57">
  <defs>
    <style>
      .cls-1 {
        fill: #fff;
        stroke: #231f20;
        stroke-miterlimit: 10;
        stroke-width: 6px;
      }
    </style>
  </defs>
  <g id="Layer_1-2" data-name="Layer 1">
    <g>
      <path class="cls-1" d="M139.2,12.08v63c0,5.02-4.07,9.08-9.08,9.08h-5.22c-5.02,0-9.08,4.07-9.08,9.08v2.42c0,8.09-9.79,12.15-15.51,6.42l-15.26-15.27c-1.7-1.7-4.01-2.66-6.42-2.66H12.08c-5.02,0-9.08-4.07-9.08-9.08V12.08C3,7.07,7.07,3,12.08,3h118.03c5.02,0,9.08,4.07,9.08,9.08Z"/>
      <g>
        <circle class="cls-1" cx="106.1" cy="45.42" r="9.4"/>
        <circle class="cls-1" cx="71.1" cy="45.42" r="9.4"/>
        <circle class="cls-1" cx="36.1" cy="45.42" r="9.4"/>
      </g>
    </g>
    <path class="cls-1" d="M389.86,252.46v24.83c0,.94-.76,1.7-1.7,1.7h-9.14c-.94,0-1.7-.76-1.7-1.7v-1.87c0-1.54-1.87-2.29-2.94-1.18l-21.7,22.65-23.21,23.21c-.67,.67-1.75,.67-2.41,0l-22.01-22.01c-.67-.67-1.75-.67-2.41,0l-36.97,36.98c-.67,.67-1.75,.67-2.41,0l-6.83-6.83c-.67-.67-.67-1.75,0-2.41l46.43-46.43c.67-.67,1.75-.67,2.41,0l22.01,22.01c.67,.67,1.75,.67,2.41,0l35.13-35.13c1.07-1.07,.31-2.91-1.21-2.91h0c-.94,0-1.7-.76-1.7-1.7v-9.2c0-.94,.76-1.7,1.7-1.7h24.55c.94,0,1.7,.76,1.7,1.7Z"/>
    <g>
      <rect class="cls-1" x="138.47" y="238.88" width="38.98" height="11.92" rx="5.96" ry="5.96"/>
      <rect class="cls-1" x="186.16" y="238.88" width="25.91" height="11.92" rx="5.96" ry="5.96"/>
      <rect class="cls-1" x="138.47" y="202.88" width="73.61" height="27.52" rx="5.96" ry="5.96"/>
    </g>
    <g>
      <circle class="cls-1" cx="509.18" cy="133.95" r="44.71"/>
      <g>
        <line class="cls-1" x1="509.18" y1="114.57" x2="509.18" y2="153.33"/>
        <line class="cls-1" x1="528.56" y1="133.95" x2="489.8" y2="133.95"/>
      </g>
    </g>
  </g>
</svg>