<?xml version="1.0" encoding="UTF-8"?>
<svg class="icon" id="Layer_2" data-name="Layer 2" xmlns="http://www.w3.org/2000/svg" viewBox="0 0 24.96 25.29">
  <g id="Layer_1-2" data-name="Layer 1">
    <g>
      <path class="grey" d="M23.96,12.36c0,2.17-1.77,3.94-3.94,3.94H6.32c-2.94,0-5.32-2.39-5.32-5.33S3.39,5.64,6.32,5.64c.58,0,1.13,.1,1.65,.26,.44-2.78,2.85-4.9,5.75-4.9,3.23,0,5.84,2.61,5.84,5.84,0,.58-.09,1.13-.24,1.65,.22-.04,.46-.06,.7-.06,2.17,0,3.94,1.77,3.94,3.94Z"/>
      <g>
        <line class="foggrey" x1="3.32" y1="20.03" x2="21.64" y2="20.03"/>
        <line class="foggrey" x1="5.33" y1="24.29" x2="19.63" y2="24.29"/>
      </g>
    </g>
  </g>
</svg>