<?xml version="1.0" encoding="UTF-8"?>
<svg class="icon" id="Layer_2" data-name="Layer 2" xmlns="http://www.w3.org/2000/svg" viewBox="0 0 26.28 21.93">
  <g id="Layer_1-2" data-name="Layer 1">
    <g>
      <g>
        <path class="yellow" d="M6.52,11.23c-.88-.61-1.45-1.62-1.45-2.77,0-1.87,1.52-3.39,3.4-3.39,1.69,0,3.1,1.24,3.35,2.86"/>
        <line class="yellow" x1="8.46" y1="1" x2="8.46" y2="2.36"/>
        <line class="yellow" x1="3.19" y1="3.19" x2="4.15" y2="4.15"/>
        <line class="yellow" x1="1" y1="8.46" x2="2.36" y2="8.46"/>
        <line class="yellow" x1="3.19" y1="13.74" x2="4.15" y2="12.78"/>
        <line class="yellow" x1="12.78" y1="4.15" x2="13.74" y2="3.19"/>
      </g>
      <path class="grey" d="M25.28,17.72c0,1.78-1.44,3.21-3.21,3.21H10.92c-2.39,0-4.34-1.94-4.34-4.34s1.94-4.34,4.34-4.34c.47,0,.92,.08,1.34,.21,.36-2.26,2.32-4,4.68-4,2.62,0,4.75,2.13,4.75,4.75,0,.47-.07,.93-.2,1.35,.18-.03,.37-.05,.57-.05,1.77,0,3.21,1.43,3.21,3.2Z"/>
    </g>
  </g>
</svg>