<?xml version="1.0" encoding="UTF-8"?>
<svg class="icon" id="Layer_2" data-name="Layer 2" xmlns="http://www.w3.org/2000/svg" viewBox="0 0 25.89 26.24">
  <g id="Layer_1-2" data-name="Layer 1">
    <g>
      <path class="grey" d="M24.89,12.82c0,2.26-1.84,4.1-4.1,4.1H6.54c-3.06,0-5.54-2.48-5.54-5.55S3.48,5.83,6.54,5.83c.6,0,1.17,.1,1.72,.27,.45-2.89,2.97-5.1,5.98-5.1,3.36,0,6.07,2.72,6.07,6.07,0,.6-.09,1.17-.25,1.72,.23-.04,.48-.07,.73-.07,2.26,0,4.1,1.84,4.1,4.1Z"/>
      <g>
        <line class="rainblue" x1="21.38" y1="19.75" x2="18.04" y2="25.24"/>
        <line class="rainblue" x1="13.81" y1="23.22" x2="12.58" y2="25.24"/>
        <line class="rainblue" x1="10.47" y1="19.75" x2="7.13" y2="25.24"/>
        <line class="rainblue" x1="5.01" y1="19.75" x2="3.81" y2="21.73"/>
      </g>
    </g>
  </g>
</svg>