<?xml version="1.0" encoding="UTF-8"?>
<svg class="icon" id="Layer_2" data-name="Layer 2" xmlns="http://www.w3.org/2000/svg" viewBox="0 0 26.24 25.29">
  <g id="Layer_1-2" data-name="Layer 1">
    <g>
      <path class="grey" d="M21.08,17.15c2.29,0,4.16-1.87,4.16-4.16s-1.87-4.16-4.16-4.16c-.26,0-.51,.02-.74,.07,.17-.55,.26-1.14,.26-1.74,0-3.41-2.75-6.16-6.16-6.16-3.06,0-5.61,2.24-6.07,5.17-.55-.17-1.14-.27-1.74-.27-3.1,0-5.62,2.52-5.62,5.62,0,1.84,.88,3.47,2.24,4.49"/>
      <g>
        <g>
          <line class="snowblue" x1="10.98" y1="17.76" x2="5.62" y2="14.67"/>
          <line class="snowblue" x1="5.62" y1="17.76" x2="10.98" y2="14.67"/>
          <line class="snowblue" x1="8.3" y1="13.12" x2="8.3" y2="19.31"/>
        </g>
        <g>
          <line class="snowblue" x1="20.62" y1="22.74" x2="15.26" y2="19.65"/>
          <line class="snowblue" x1="15.26" y1="22.74" x2="20.62" y2="19.65"/>
          <line class="snowblue" x1="17.94" y1="18.1" x2="17.94" y2="24.29"/>
        </g>
      </g>
    </g>
  </g>
</svg>