<?xml version="1.0" encoding="UTF-8"?>
<svg id="Layer_2" data-name="Layer 2" xmlns="http://www.w3.org/2000/svg" viewBox="0 0 19.82 18.7">
  <defs>
    <style>
      .cls-1 {
        fill: #231f20;
      }
    </style>
  </defs>
  <g id="Layer_2-2" data-name="Layer 2">
    <g id="Layer_1-2" data-name="Layer 1-2">
      <path class="cls-1" d="M9.91,18.7c-.38,0-.77-.15-1.06-.44L.44,9.85c-.59-.59-.59-1.54,0-2.12,.59-.59,1.54-.59,2.12,0l7.35,7.35,7.35-7.35c.59-.59,1.54-.59,2.12,0,.59,.59,.59,1.54,0,2.12l-8.41,8.41c-.29,.29-.68,.44-1.06,.44Z"/>
      <path class="cls-1" d="M9.91,11.41c-.38,0-.77-.15-1.06-.44L.44,2.56C-.15,1.98-.15,1.02,.44,.44,1.03-.15,1.97-.15,2.56,.44l7.35,7.35L17.26,.44c.59-.59,1.54-.59,2.12,0,.59,.59,.59,1.54,0,2.12L10.97,10.97c-.29,.29-.68,.44-1.06,.44Z"/>
    </g>
  </g>
</svg>