<?xml version="1.0" encoding="UTF-8"?>
<svg id="Layer_2" data-name="Layer 2" xmlns="http://www.w3.org/2000/svg" xmlns:xlink="http://www.w3.org/1999/xlink" viewBox="0 0 335.24 206.33">
  <defs>
    <style>
      .cls-1 {
        fill: url(#linear-gradient);
      }

      .cls-2 {
        fill: #000000;
        opacity: .95;
      }

      .cls-3 {
        fill: #58595b;
      }
    </style>
    <linearGradient id="linear-gradient" x1="167.62" y1="165.8" x2="167.62" y2="46.8" gradientUnits="userSpaceOnUse">
      <stop offset="0" stop-color="#231f20"/>
      <stop offset="1" stop-color="#f9ed32" stop-opacity="0"/>
    </linearGradient>
  </defs>
  <g id="Layer_1-2" data-name="Layer 1">
    <g>
      <path class="cls-1" d="M204.36,129.06c0,20.26-16.48,36.74-36.74,36.74s-36.73-16.48-36.73-36.74c0-4.23,.72-8.29,2.03-12.07l20.95-60.21,.09-.27h0c.73-2.09,1.92-3.95,3.45-5.48,.14-.14,.29-.28,.44-.41,2.57-2.38,6-3.82,9.76-3.82s7.2,1.45,9.78,3.82c.14,.13,.28,.26,.42,.4,1.54,1.52,2.73,3.39,3.46,5.49h.01l.09,.26,20.95,60.22c1.31,3.78,2.03,7.84,2.03,12.07Z"/>
      <g>
        <path class="cls-3" d="M181.76,54.99c0,.64-.14,1.24-.38,1.78-.69,1.53-2.22,2.59-3.99,2.59h-19.54c-1.2,0-2.29-.49-3.09-1.28-.37-.37-.68-.81-.89-1.3-.25-.54-.39-1.15-.39-1.79,0-2.25,1.74-4.13,3.94-4.35,.14-.01,.28-.02,.43-.02h19.55c.14,0,.28,0,.42,.02,1.03,.1,1.96,.57,2.66,1.26,.79,.8,1.28,1.89,1.28,3.09Z"/>
        <path class="cls-3" d="M177.82,50.64v3.28c0,2.99-2.45,5.44-5.45,5.44h-9.5c-3,0-5.45-2.45-5.45-5.44v-3.28c.05-5.57,4.62-10.1,10.2-10.1s10.15,4.53,10.2,10.1Z"/>
      </g>
    </g>
    <path class="cls-2" d="M0,0V206.33H335.24V0H0ZM167.62,165.8c-20.25,0-36.73-16.48-36.73-36.74,0-4.23,.72-8.29,2.03-12.07l20.95-60.21c-.25-.54-.39-1.15-.39-1.79,0-2.25,1.74-4.13,3.94-4.35,.05-5.57,4.62-10.1,10.2-10.1s10.15,4.53,10.2,10.1c1.03,.1,1.96,.57,2.66,1.26,.79,.8,1.28,1.89,1.28,3.09,0,.64-.14,1.24-.38,1.78l20.95,60.22c1.31,3.78,2.03,7.84,2.03,12.07,0,20.26-16.48,36.74-36.74,36.74Z"/>
  </g>
</svg>