<svg class="icon fill" fill="#000000" xmlns="http://www.w3.org/2000/svg" viewBox="0 0 6.31 6.31">
    <g>
      <path d="m1.75,0C.79,0,0,.79,0,1.75v2.81c0,.96.79,1.75,1.75,1.75h2.81c.96,0,1.75-.79,1.75-1.75V1.75c0-.96-.79-1.75-1.75-1.75H1.75Zm0,.7h2.81c.58,0,1.05.47,1.05,1.05v2.81c0,.58-.47,1.05-1.05,1.05H1.75c-.58,0-1.05-.47-1.05-1.05V1.75c0-.58.47-1.05,1.05-1.05Z"/>
      <path d="m4.22,3.56l-.55.18c-.06.02-.12.07-.15.13l-.26.52c-.1.2-.4.18-.47-.03l-.6-1.81c-.07-.21.15-.41.36-.31l1.7.85c.2.1.18.4-.03.47Z"/>
    </g>
</svg>