<?xml version="1.0" encoding="utf-8"?>
<!-- Generator: Adobe Illustrator 27.0.0, SVG Export Plug-In . SVG Version: 6.00 Build 0)  -->
<svg version="1.1" id="Layer_2_00000067219642904931342640000009926105656427315847_"
	 xmlns="http://www.w3.org/2000/svg" xmlns:xlink="http://www.w3.org/1999/xlink" x="0px" y="0px" viewBox="0 0 41.5 41.5"
	 style="enable-background:new 0 0 41.5 41.5;" xml:space="preserve">
<style type="text/css">
	.st0{fill:#272324;}
	.st1{fill:#231F20;}
</style>
<g>
	<g>
		<g>
			<path class="st0" d="M32.3,2.2C31.9,1.5,32,0.6,32.5,0H29l-0.4,0.2c-0.3,0.2-0.8,0.1-1-0.2h-1.4l0.4,0.6c0.2,0.4,0.1,0.8-0.2,1
				l-2.7,1.7h0c-0.3,0.2-0.8,0.1-1-0.2l-1.7-2.7c-0.1-0.1-0.1-0.2-0.1-0.3h-4.4L0,10v3.3l1.6,2.6c0.2,0.4,0.1,0.8-0.2,1L0,17.7v2.5
				c0.5,0.1,1,0.4,1.3,0.9l9.8,16.1c0.5,0.9,0.3,2.1-0.6,2.6h0l-2.7,1.7h4c0-0.3,0.1-0.5,0.4-0.7l2.7-1.7h0c0.3-0.2,0.8-0.1,1,0.2
				l1.3,2.1h1.3l-1.6-2.7c-0.2-0.4-0.1-0.8,0.2-1l2.7-1.7c0.3-0.2,0.8-0.1,1,0.2l1.6,2.7c0.2,0.4,0.1,0.8-0.2,1l-2.2,1.3h3.6
				l17.8-10.8v-2.2l-1.8,1.1c-0.3,0.2-0.8,0.1-1-0.3l-1.7-2.7c-0.2-0.4-0.1-0.8,0.2-1l2.7-1.7h0c0.4-0.2,0.8-0.1,1,0.2l0.5,0.9v-7.8
				L32.3,2.2z M16.2,2.3l2.7-1.6c0.4-0.2,0.8-0.1,1,0.2l1.7,2.7c0.2,0.4,0.1,0.8-0.3,1l-2.7,1.6c-0.4,0.2-0.8,0.1-1-0.2l-1.7-2.7
				C15.7,3,15.8,2.5,16.2,2.3z M11.2,5.4l2.7-1.7c0.4-0.2,0.8-0.1,1,0.2l1.7,2.7c0.2,0.4,0.1,0.8-0.3,1l-2.7,1.7
				c-0.4,0.2-0.8,0.1-1-0.2l-1.6-2.7C10.7,6.1,10.8,5.6,11.2,5.4z M6.2,8.4l2.7-1.7c0.4-0.2,0.8-0.1,1,0.2l1.7,2.7
				c0.2,0.4,0.1,0.8-0.3,1l-2.7,1.7c-0.4,0.2-0.8,0.1-1-0.2L5.9,9.5C5.7,9.1,5.8,8.6,6.2,8.4z M6.3,13.8l-2.7,1.7h0
				c-0.4,0.2-0.8,0.1-1-0.2l-1.6-2.7c-0.2-0.4-0.1-0.8,0.2-1l2.7-1.7c0.3-0.2,0.8-0.1,1,0.3l1.7,2.7C6.8,13.2,6.7,13.6,6.3,13.8z
				 M19.7,34.2c-0.9,0.5-2.1,0.3-2.6-0.6L7.3,17.4c-0.5-0.9-0.3-2.1,0.6-2.6l15.8-9.6c0.9-0.5,2.1-0.3,2.6,0.6L36.2,22
				c0.5,0.9,0.3,2.1-0.6,2.6h0L19.7,34.2z M27.3,37.1l-2.7,1.7h0c-0.4,0.2-0.8,0.1-1-0.2l-1.6-2.7c-0.2-0.4-0.1-0.8,0.3-1l2.7-1.7
				c0.4-0.2,0.8-0.1,1,0.2l1.7,2.7C27.8,36.4,27.7,36.9,27.3,37.1z M32.3,34l-2.7,1.7h0c-0.4,0.2-0.8,0.1-1-0.2l-1.6-2.7
				c-0.2-0.4-0.1-0.8,0.3-1l2.7-1.7c0.4-0.2,0.8-0.1,1,0.2l1.7,2.7C32.8,33.3,32.7,33.8,32.3,34z M37.6,29.9c0.2,0.4,0.1,0.8-0.2,1
				l-2.7,1.7c-0.4,0.2-0.8,0.1-1-0.2l-1.7-2.7c-0.2-0.4-0.1-0.8,0.3-1l2.7-1.7c0.4-0.2,0.8-0.1,1,0.2L37.6,29.9z"/>
		</g>
	</g>
</g>
<g>
	<path class="st1" d="M28.3,17.8v7.4c0,0.5-0.4,0.9-0.9,0.9H15.3c-0.5,0-0.9-0.4-0.9-0.9v-7.4H28.3z"/>
</g>
<g>
	<path class="st1" d="M27,12.7c-0.1-0.2-0.2-0.3-0.3-0.4c-0.2-0.1-0.3-0.1-0.5-0.1l-11.7,3.2c-0.4,0.1-0.6,0.5-0.5,0.8l0.7,2.4
		l13-3.6L27,12.7z M14.9,17.1l-0.3-1c0,0,0-0.1,0-0.1l0.6-0.1L14.9,17.1z M18.5,17L17,17.4l0.6-2.2l1.5-0.4L18.5,17z M22.5,15.9
		L21,16.3l0.6-2.2l1.5-0.4L22.5,15.9z M25.5,13.1l0.8-0.2l0,0l0,0.1l0.3,1.1l-0.2,0.9L25,15.3L25.5,13.1z"/>
</g>
</svg>
